<?xml version="1.0" ?><svg id="Capa_1" style="enable-background:new 0 0 100 100;" version="1.1" viewBox="0 0 100 100"
    xml:space="preserve" xmlns="http://www.w3.org/2000/svg" xmlns:xlink="http://www.w3.org/1999/xlink" fill="white">
    <path
        d="M59.5,22.9v54.1c0,1.5-1.7,2.5-3,1.7l-27-16h-21c-1.1,0-2-0.9-2-1v-22c0-1.1,0.9-2,2-2h21l27-15.6  C57.8,20.4,59.5,21.4,59.5,22.9z" />
    <path
        d="M64.9,57.9c-0.6,0-1-0.4-1-1s0.4-1,1-1c3.3,0,5.9-2.6,5.9-5.9c0-3.3-2.6-5.9-5.9-5.9c-0.6,0-1-0.4-1-1s0.4-1,1-1  c4.4,0,7.9,3.5,7.9,7.9S69.3,57.9,64.9,57.9z" />
    <path
        d="M64.9,64.8c-0.6,0-1-0.4-1-1s0.4-1,1-1c7.1,0,12.8-5.7,12.8-12.8S72,37.2,64.9,37.2c-0.6,0-1-0.4-1-1s0.4-1,1-1  c8.2,0,14.8,6.6,14.8,14.8S73.1,64.8,64.9,64.8z" />
    <path
        d="M64.9,71.7c-0.6,0-1-0.4-1-1s0.4-1,1-1c10.9,0,19.7-8.8,19.7-19.7s-8.8-19.7-19.7-19.7c-0.6,0-1-0.4-1-1s0.4-1,1-1  c12,0,21.7,9.7,21.7,21.7C86.6,62,76.9,71.7,64.9,71.7z" />
    <path
        d="M64.9,78.6c-0.6,0-1-0.4-1-1s0.4-1,1-1c14.7,0,26.6-11.9,26.6-26.6S79.6,23.4,64.9,23.4c-0.6,0-1-0.4-1-1s0.4-1,1-1  c15.8,0,28.6,12.8,28.6,28.6C93.5,65.8,80.7,78.6,64.9,78.6z" />
</svg>