<svg width="10" height="8" viewBox="0 0 10 8" fill="none" xmlns="http://www.w3.org/2000/svg">
<path fill-rule="evenodd" clip-rule="evenodd" d="M7.58599 3.99989L9.70799 6.12089C10.097 6.51189 10.097 7.14489 9.70799 7.53589C9.31699 7.92589 8.68399 7.92589 8.29299 7.53589L5.46299 4.70689C5.07499 4.31589 5.07499 3.68289 5.46299 3.29289L8.29299 0.463887C8.68399 0.0738867 9.31699 0.0738867 9.70799 0.463887C10.097 0.854887 10.097 1.48789 9.70799 1.87889L7.58599 3.99989ZM4.70699 7.53589C4.31699 7.92589 3.68299 7.92589 3.29199 7.53589L0.46499 4.70689C0.07299 4.31589 0.07299 3.68289 0.46499 3.29289L3.29199 0.463887C3.68299 0.0738867 4.31699 0.0738867 4.70699 0.463887C5.09699 0.854887 5.09699 1.48789 4.70699 1.87889L2.58499 3.99989L4.70699 6.12089C5.09699 6.51189 5.09699 7.14489 4.70699 7.53589Z" fill="#222"/>
</svg>
