<svg width="11" height="8" viewBox="0 0 11 8" fill="none" xmlns="http://www.w3.org/2000/svg">
<path fill-rule="evenodd" clip-rule="evenodd" d="M9.724 4.70689L6.895 7.53589C6.505 7.92589 5.872 7.92589 5.482 7.53589C5.089 7.14489 5.089 6.51189 5.482 6.12089L7.602 3.99989L5.482 1.87889C5.089 1.48789 5.089 0.854887 5.482 0.463887C5.872 0.0738867 6.505 0.0738867 6.895 0.463887L9.724 3.29289C10.114 3.68289 10.114 4.31589 9.724 4.70689ZM1.894 7.53589C1.505 7.92589 0.872001 7.92589 0.479001 7.53589C0.0890006 7.14489 0.0890006 6.51189 0.479001 6.12089L2.601 3.99989L0.479001 1.87889C0.0890006 1.48789 0.0890006 0.854887 0.479001 0.463887C0.872001 0.0738867 1.505 0.0738867 1.894 0.463887L4.723 3.29289C5.114 3.68289 5.114 4.31589 4.723 4.70689L1.894 7.53589Z" fill="#222"/>
</svg>
