<?xml version="1.0" encoding="UTF-8"?>
<svg width="24px" height="24px" viewBox="0 0 24 24" version="1.1" xmlns="http://www.w3.org/2000/svg">
  <title>sns_link_hover</title>
  <g id="sns_link_hover" stroke="none" stroke-width="1" fill="none" fill-rule="evenodd">
    <path
      d="M15.3099375,8.69020313 C18.1105781,11.49375 18.0721406,15.9885469 15.3268125,18.7491094 C15.3216563,18.7547344 15.3155625,18.7608281 15.3099375,18.7664531 L12.1599375,21.9164531 C9.38165625,24.6947344 4.86154688,24.6943594 2.0836875,21.9164531 C-0.69459375,19.1386406 -0.69459375,14.6180156 2.0836875,11.8402031 L3.82303125,10.1008594 C4.28428125,9.63960938 5.078625,9.94617188 5.1024375,10.5980156 C5.1328125,11.4287344 5.28178125,12.2633438 5.55665625,13.0693125 C5.64975,13.3422188 5.58323438,13.6440937 5.37932813,13.848 L4.765875,14.4614531 C3.45215625,15.7751719 3.41095313,17.9142656 4.71173438,19.2408281 C6.02535938,20.5804688 8.18451563,20.5884375 9.50821875,19.2647344 L12.6582188,16.1152031 C13.9796719,14.79375 13.9741406,12.6578437 12.6582188,11.3419219 C12.4847344,11.1687656 12.3099844,11.0342344 12.1734844,10.94025 C11.9776781,10.8057899 11.8569393,10.5866977 11.8478438,10.3493438 C11.8292813,9.85401563 12.0047813,9.34359375 12.3961875,8.9521875 L13.3830938,7.96523437 C13.6418906,7.7064375 14.047875,7.67465625 14.3479688,7.88409375 C14.6916415,8.12407009 15.0135384,8.39381284 15.3099375,8.69020313 Z M21.9162656,2.08354688 C19.1384063,-0.694359375 14.6182969,-0.694734375 11.8400156,2.08354688 L8.69001563,5.23354688 C8.68439063,5.23917188 8.67829688,5.24526563 8.67314063,5.25089063 C5.92785937,8.01145313 5.889375,12.50625 8.69001563,15.3097969 C8.98639722,15.6061738 9.30827874,15.8759011 9.6519375,16.1158594 C9.95203125,16.3252969 10.3580625,16.2934688 10.6168125,16.0347188 L11.6037188,15.0477656 C11.995125,14.6563594 12.170625,14.1459375 12.1520625,13.6506094 C12.142967,13.4132554 12.0222282,13.1941633 11.8264219,13.0597031 C11.6899219,12.9657188 11.5151719,12.8311875 11.3416875,12.6580313 C10.0257656,11.3421094 10.0202344,9.20620313 11.3416875,7.88475 L14.4916875,4.73521875 C15.8153906,3.41151563 17.9745,3.41948438 19.2881719,4.759125 C20.5889531,6.0856875 20.5477969,8.22478125 19.2340313,9.5385 L18.6205781,10.1519531 C18.4166719,10.3558594 18.3501562,10.6577344 18.44325,10.9306406 C18.718125,11.7366094 18.8670937,12.5712188 18.8974687,13.4019375 C18.9213281,14.0537813 19.715625,14.3603438 20.176875,13.8990938 L21.9162187,12.15975 C24.6945469,9.38198438 24.6945469,4.86135938 21.9162656,2.08354688 L21.9162656,2.08354688 Z"
      id="Shape" fill="white" fill-rule="nonzero"></path>
  </g>
</svg>
